inDegrees=no
num_controls=7
num_derivatives=13
num_iterations=255
num_multipliers=7
num_parameters=0
num_slacks=7
num_states=26
objective=5.172500
objective_accelerations=0.223221
objective_balance=0.009389
objective_effort=0.264460
objective_height=4.582670
objective_ligament=0.092761
solver_duration=2177.222661
status=Solve_Succeeded
success=true
DataType=double
version=3
OpenSimVersion=4.4-2022-07-23-0e9fedc
endheader
time	/jointset/ground_pelvis/pelvis_tilt/value	/jointset/ground_pelvis/pelvis_tx/value	/jointset/ground_pelvis/pelvis_ty/value	/jointset/hip_r/hip_flexion_r/value	/jointset/hip_r/hip_adduction_r/value	/jointset/hip_r/hip_rotation_r/value	/jointset/back/lumbar_extension/value	/jointset/patellofemoral_r/patellar_flexion_r/value	/jointset/knee_r/knee_flexion_r/value	/jointset/knee_r/knee_adduction_r/value	/jointset/knee_r/knee_rotation_r/value	/jointset/ankle_r/ankle_angle_r/value	/jointset/subtalar_r/subtalar_angle_r/value	/jointset/ground_pelvis/pelvis_tilt/speed	/jointset/ground_pelvis/pelvis_tx/speed	/jointset/ground_pelvis/pelvis_ty/speed	/jointset/hip_r/hip_flexion_r/speed	/jointset/hip_r/hip_adduction_r/speed	/jointset/hip_r/hip_rotation_r/speed	/jointset/back/lumbar_extension/speed	/jointset/patellofemoral_r/patellar_flexion_r/speed	/jointset/knee_r/knee_flexion_r/speed	/jointset/knee_r/knee_adduction_r/speed	/jointset/knee_r/knee_rotation_r/speed	/jointset/ankle_r/ankle_angle_r/speed	/jointset/subtalar_r/subtalar_angle_r/speed	/forceset/tau_hip_flexion_r	/forceset/tau_hip_adduction_r	/forceset/tau_hip_rotation_r	/forceset/tau_knee_flexion_r	/forceset/tau_ankle_angle_r	/forceset/tau_subtalar_angle_r	/forceset/tau_lumbar_extension	lambda_cid13_p0	lambda_cid14_p0	lambda_cid14_p1	lambda_cid14_p2	lambda_cid14_p3	lambda_cid14_p4	lambda_cid14_p5	/jointset/ground_pelvis/pelvis_tilt/accel	/jointset/ground_pelvis/pelvis_tx/accel	/jointset/ground_pelvis/pelvis_ty/accel	/jointset/hip_r/hip_flexion_r/accel	/jointset/hip_r/hip_adduction_r/accel	/jointset/hip_r/hip_rotation_r/accel	/jointset/back/lumbar_extension/accel	/jointset/patellofemoral_r/patellar_flexion_r/accel	/jointset/knee_r/knee_flexion_r/accel	/jointset/knee_r/knee_adduction_r/accel	/jointset/knee_r/knee_rotation_r/accel	/jointset/ankle_r/ankle_angle_r/accel	/jointset/subtalar_r/subtalar_angle_r/accel	gamma_cid13_p0	gamma_cid14_p0	gamma_cid14_p1	gamma_cid14_p2	gamma_cid14_p3	gamma_cid14_p4	gamma_cid14_p5
1	0.0353972473115578	0.0728826175071343	0.8122921470581533	0.6745333583913639	-0.2401670770896931	-0.1031602685129046	-0.7853253889960869	1.034595732996572	1.034595732996573	-0.03086977757423187	0.1745326721981314	0.4186455946895549	0.1639034392318076	0.07197038659059318	0.01026912050553662	0.01110199340161637	-0.106316517034189	-0.001182309677699926	-0.005757306389978176	0.01103854888054441	-0.01786356555869589	-0.01786356555869597	0.002121709312894303	-3.05455211454976e-06	0.01637698201038345	0.005927639337671836	-0.1628400038028747	0.02969581138223482	0.02339034072317759	-0.3430363329112874	-0.09815021496262165	0.005122032247614974	0.2516855144395774	-4.682748114024792	-78.47826971065805	-10.35161570304861	0.7417114601653589	12.07895525968785	-710.4293141075427	66.91596865773766	0.3008325102313008	0.02640384227249467	0.7318007310318417	-2.150690648507469	0.1758387258667249	-0.5495054057602201	0.75374032605729	-3.064456598235328	-3.064456598235319	0.2577310654424627	-0.003654655985247804	-1.340546741577815	-0.3158186417207764	4.056162920432063e-10	-1.062637296091809e-09	4.235861369594337e-09	-1.677654377861151e-09	1.430711348786762e-09	-5.656966980036856e-09	6.538797221178523e-09
1.01	0.0361311810134425	0.0729868238033914	0.812439640956926	0.6733634357293962	-0.2401702825157885	-0.1032450522054584	-0.7851753358755362	1.034264156275992	1.034264156275998	-0.03083521146108616	0.1745326342627695	0.4187425862367636	0.1639467125064492	0.07478134041312554	0.01059255085507918	0.01839578944028035	-0.1276608121700953	0.0005379710618872775	-0.01119744692246901	0.01911807757536022	-0.04845789997009187	-0.04845789997009185	0.004800918480056283	-4.173820990430451e-06	0.003042242441931116	0.002730855470084841	-0.1631563851609264	0.02976527863968593	0.02339146874953727	-0.3429616774231989	-0.09836797718506644	0.005135676195933002	0.2522810660468155	-4.695697200828909	-78.56713530220927	-10.35649973256474	0.7370642668350532	11.9166048191305	-710.8643063860366	66.92388569805655	0.2659751166066571	0.03837507900420323	0.7280179942144185	-2.125218330059615	0.1696352421564558	-0.5409702407321287	0.8569594931208842	-3.057840266157873	-3.057840266157875	0.2744266999355148	0.001713879300744944	-1.32680059883919	-0.3210317214346075	9.529251169263494e-10	-1.700531942017248e-09	1.076046407538609e-09	2.851410690071698e-09	3.140895523393009e-09	-7.526971055342523e-09	2.120177061644946e-09
1.02	0.03689217391322067	0.07309487689268562	0.8126600426068712	0.6719802862392793	-0.2401563826356572	-0.1033841776760897	-0.7849401073976516	1.033626452530582	1.033626452530602	-0.03077357108477557	0.1745325960230481	0.4187068577814179	0.1639581332499834	0.07738222616936012	0.01103847911295869	0.02568354363613831	-0.1489618826630997	0.002238751567554336	-0.01662566200450796	0.02807362034726231	-0.07908897052413377	-0.07908897052413366	0.007536561950521108	-3.115424286620909e-06	-0.01016701850093311	-0.000442866883781907	-0.1634727665190052	0.02983474589710818	0.02339259677603724	-0.3428870219351036	-0.09858573940751984	0.005149320144190927	0.2528766176540343	-4.720683194255465	-78.6644961763151	-10.3583965324399	0.7268297649751521	11.76250603462664	-711.4384920534197	66.95884973318873	0.2588188969718462	0.05090342393977706	0.7305923624706354	-2.142045719927057	0.1719386790827059	-0.5471203156698214	0.9289431414745681	-3.071803826764516	-3.071803826764505	0.2690179261030407	-0.003219122869308119	-1.315451016460345	-0.3112063389767821	1.586685998017882e-09	-1.640232407498922e-09	-1.202020394941133e-09	7.371758904245482e-09	3.601378826462402e-09	-9.036662706045723e-09	-5.716269467497607e-10
1.03	0.03767818572992668	0.07320796027392125	0.8129532663082185	0.6703843675816471	-0.2401255751283252	-0.1035774880297256	-0.7846112649155381	1.03268229580569	1.032682295805694	-0.03068426475820829	0.1745325743679079	0.418539616695915	0.1639379119540965	0.07978997470721812	0.0115945708728329	0.03295749391314604	-0.1702107029923579	0.003919348063842229	-0.02203089130794417	0.03781062384015427	-0.1097440628517572	-0.1097440628517568	0.01033632164440834	-1.502099008495377e-06	-0.02326485408608761	-0.003599263610507469	-0.1634840384239293	0.0298349288303	0.02339163612163367	-0.3427088879977617	-0.09860436529621236	0.005128700920465182	0.2531451363075327	-4.757801522125725	-78.67893059636482	-10.36335673368971	0.7201707075096714	11.6259578090986	-711.6508666116779	66.95614030339974	0.2272289147832952	0.06041892504144543	0.7252388346247414	-2.114628083854086	0.1656116168194971	-0.5363949119190007	1.013441117986701	-3.062615643497145	-3.062615643497125	0.2871972762500486	0.001810681784997705	-1.304498286749216	-0.3175361015870131	2.221329042948276e-09	-1.572808442567901e-09	-3.471089767221115e-09	1.189201817093193e-08	4.049110079822228e-09	-1.054267769935502e-08	-3.245810382173654e-09
